# xmcd
#
# Track frame offsets:
#	150
#	15197
#	44284
#	74503
#	104941
#	133658
#	146972
#	163102
#	195547
#	221815
#	245323
#
# Disc length: 3587 seconds
#
# Revision: 0
# Processed by: cddbd v1.5.1PL0 Copyright (c) Steve Scherf et al.
# Submitted via: audiograbber 1.83.01
#
DISCID=a90e010b
DTITLE=Triplex. - (2004) - Остерегайтесь подделок!
DYEAR=1900
DGENRE=
TTITLE0=Бригада. (Original Mix)
TTITLE1=Which Sounds Work.
TTITLE2=Паноптикум.
TTITLE3=Никто не узнает.
TTITLE4=Club Island.
TTITLE5=Все, что касается. (Triplex vs Звери)
TTITLE6=Новогодняя история.
TTITLE7=Dialup.
TTITLE8=Бригада. (Dj Ivanov "Pan Party" Mix)
TTITLE9=Бригада. (Navigator "Lift Off!" Mix)
TTITLE10=Clubbable '99.
EXTD=
EXTT0=
EXTT1=
EXTT2=
EXTT3=
EXTT4=
EXTT5=
EXTT6=
EXTT7=
EXTT8=
EXTT9=
EXTT10=
PLAYORDER=
